<svg width="60" height="60" viewBox="0 0 60 60" fill="none" xmlns="http://www.w3.org/2000/svg">
<rect width="60" height="60" rx="30" fill="#AD00FF"/>
<path d="M26.4326 29.404V24.4H28.8986V37H26.4326V31.78H21.7526V37H19.2686V24.4H21.7526V29.404H26.4326ZM31.2393 24.4H36.2433C37.9713 24.4 39.4113 25.006 40.5633 26.218C41.7273 27.418 42.3093 28.912 42.3093 30.7C42.3093 32.488 41.7273 33.982 40.5633 35.182C39.4113 36.394 37.9713 37 36.2433 37H31.2393V24.4ZM33.7233 34.624H36.2433C37.3353 34.624 38.2233 34.264 38.9073 33.544C39.5913 32.8 39.9333 31.852 39.9333 30.7C39.9333 29.536 39.5913 28.594 38.9073 27.874C38.2233 27.142 37.3353 26.776 36.2433 26.776H33.7233V34.624Z" fill="white"/>
</svg>
