<svg width="84" height="84" viewBox="0 0 84 84" fill="none" xmlns="http://www.w3.org/2000/svg">
<g id="Group 171">
<path id="&#208;&#154;&#208;&#190;&#208;&#189;&#209;&#130;&#209;&#131;&#209;&#128; 1566" d="M42 82C49.9112 82 57.6448 79.654 64.2228 75.2588C70.8008 70.8635 75.9277 64.6164 78.9552 57.3073C81.9827 49.9983 82.7748 41.9556 81.2314 34.1964C79.688 26.4372 75.8783 19.3098 70.2843 13.7157C64.6902 8.12164 57.5628 4.31201 49.8036 2.76861C42.0444 1.2252 34.0017 2.01733 26.6927 5.04484C19.3836 8.07234 13.1365 13.1992 8.74121 19.7772C4.34596 26.3552 2 34.0888 2 42C2 52.6087 6.21427 62.7828 13.7157 70.2843C21.2172 77.7857 31.3913 82 42 82V82Z" stroke="#AD00FF" stroke-width="3"/>
<path id="&#208;&#154;&#208;&#190;&#208;&#189;&#209;&#130;&#209;&#131;&#209;&#128; 1818" d="M63.777 33.2805C63.399 33.2295 63.018 33.204 62.6366 33.2041H56.6534C55.754 33.2042 54.8738 33.4648 54.1192 33.9543V29.1036C54.118 27.8492 53.6193 26.6466 52.7324 25.7595C51.8455 24.8725 50.6429 24.3735 49.3885 24.3721H24.9672C23.6369 24.3735 22.3614 24.9026 21.4207 25.8433C20.48 26.784 19.9509 28.0595 19.9494 29.3898V30.9969H17.7139C17.57 30.9928 17.4267 31.0176 17.2926 31.0698C17.1584 31.122 17.0361 31.2006 16.9328 31.3009C16.8296 31.4013 16.7475 31.5213 16.6914 31.6539C16.6354 31.7865 16.6065 31.929 16.6065 32.0729C16.6065 32.2169 16.6354 32.3594 16.6914 32.492C16.7475 32.6246 16.8296 32.7446 16.9328 32.845C17.0361 32.9453 17.1584 33.0239 17.2926 33.0761C17.4267 33.1283 17.57 33.1531 17.7139 33.1489H19.9503V35.4112H13.2988C13.1549 35.407 13.0116 35.4318 12.8774 35.484C12.7433 35.5362 12.621 35.6148 12.5177 35.7151C12.4145 35.8155 12.3324 35.9355 12.2763 36.0681C12.2203 36.2007 12.1914 36.3432 12.1914 36.4872C12.1914 36.6311 12.2203 36.7736 12.2763 36.9062C12.3324 37.0388 12.4145 37.1588 12.5177 37.2592C12.621 37.3595 12.7433 37.4381 12.8774 37.4903C13.0116 37.5425 13.1549 37.5673 13.2988 37.5632H19.9503V39.8263H16.6108C16.4669 39.8221 16.3236 39.8469 16.1894 39.8991C16.0553 39.9513 15.933 40.0299 15.8297 40.1302C15.7265 40.2306 15.6444 40.3506 15.5883 40.4832C15.5323 40.6158 15.5034 40.7583 15.5034 40.9023C15.5034 41.0462 15.5323 41.1887 15.5883 41.3213C15.6444 41.4539 15.7265 41.5739 15.8297 41.6743C15.933 41.7746 16.0553 41.8532 16.1894 41.9054C16.3236 41.9576 16.4669 41.9824 16.6108 41.9783H19.9503V44.2405H13.2988C13.1549 44.2363 13.0116 44.2611 12.8774 44.3133C12.7433 44.3655 12.621 44.4441 12.5177 44.5445C12.4145 44.6448 12.3324 44.7648 12.2763 44.8974C12.2203 45.03 12.1914 45.1725 12.1914 45.3165C12.1914 45.4604 12.2203 45.6029 12.2763 45.7355C12.3324 45.8681 12.4145 45.9882 12.5177 46.0885C12.621 46.1888 12.7433 46.2674 12.8774 46.3196C13.0116 46.3718 13.1549 46.3966 13.2988 46.3925H19.9503V48.4076C19.952 49.9225 20.5545 51.3748 21.6257 52.446C22.6969 53.5172 24.1492 54.1197 25.6641 54.1213H26.5761C26.5761 54.1311 26.5761 54.1391 26.5761 54.148C26.5761 55.6047 27.1548 57.0017 28.1848 58.0318C29.2148 59.0618 30.6119 59.6404 32.0686 59.6404C33.5252 59.6404 34.9223 59.0618 35.9523 58.0318C36.9823 57.0017 37.561 55.6047 37.561 54.148C37.561 54.1382 37.561 54.1302 37.561 54.1213H56.3877C56.3877 54.1311 56.3877 54.1391 56.3877 54.148C56.3877 55.6047 56.9663 57.0017 57.9964 58.0318C59.0264 59.0618 60.4234 59.6404 61.8801 59.6404C63.3368 59.6404 64.7338 59.0618 65.7638 58.0318C66.7939 57.0017 67.3725 55.6047 67.3725 54.148C67.3725 54.1382 67.3725 54.1302 67.3725 54.1213H67.8099C68.8652 54.1202 69.8769 53.7004 70.6232 52.9542C71.3694 52.208 71.7891 51.1962 71.7903 50.1409V42.3534C71.7905 40.126 70.9771 37.9753 69.5028 36.3056C68.0286 34.636 65.9952 33.5624 63.785 33.2867L63.777 33.2805ZM63.5005 35.4138C65.1929 35.6219 66.7507 36.4417 67.8804 37.7188C69.0102 38.9959 69.6338 40.6421 69.6339 42.3471V43.1374H62.3503C61.9245 43.1371 61.5161 42.968 61.2148 42.667C60.9135 42.3661 60.7439 41.9579 60.7432 41.532V35.3534H62.6366C62.9259 35.353 63.2149 35.3729 63.5014 35.4129L63.5005 35.4138ZM32.0668 57.4902C31.4063 57.4902 30.7606 57.2944 30.2114 56.9274C29.6622 56.5605 29.2342 56.0389 28.9814 55.4287C28.7287 54.8184 28.6625 54.147 28.7914 53.4992C28.9202 52.8513 29.2383 52.2563 29.7054 51.7893C30.1724 51.3222 30.7674 51.0042 31.4153 50.8753C32.0631 50.7464 32.7345 50.8126 33.3448 51.0653C33.955 51.3181 34.4766 51.7461 34.8435 52.2953C35.2105 52.8445 35.4063 53.4902 35.4063 54.1507C35.4061 55.0366 35.0543 55.8861 34.4281 56.5128C33.8019 57.1394 32.9527 57.492 32.0668 57.4929V57.4902ZM32.0668 48.6582C30.9956 48.6594 29.9481 48.9734 29.053 49.5618C28.158 50.1502 27.4543 50.9873 27.0286 51.9702H25.6641C24.7201 51.9691 23.815 51.5935 23.1475 50.926C22.4799 50.2584 22.1044 49.3534 22.1032 48.4094V46.3942H25.4428C25.7228 46.3862 25.9886 46.2693 26.1839 46.0684C26.3791 45.8675 26.4883 45.5984 26.4883 45.3183C26.4883 45.0381 26.3791 44.769 26.1839 44.5681C25.9886 44.3672 25.7228 44.2503 25.4428 44.2423H22.1032V41.98H27.6508C27.9308 41.972 28.1966 41.8551 28.3919 41.6542C28.5871 41.4533 28.6963 41.1842 28.6963 40.904C28.6963 40.6239 28.5871 40.3548 28.3919 40.1539C28.1966 39.953 27.9308 39.8361 27.6508 39.828H22.1032V37.5649H25.4428C25.7228 37.5569 25.9886 37.44 26.1839 37.2391C26.3791 37.0382 26.4883 36.7691 26.4883 36.4889C26.4883 36.2088 26.3791 35.9397 26.1839 35.7388C25.9886 35.5379 25.7228 35.421 25.4428 35.4129H22.1032V33.1507H27.6508C27.9308 33.1427 28.1966 33.0258 28.3919 32.8249C28.5871 32.624 28.6963 32.3549 28.6963 32.0747C28.6963 31.7946 28.5871 31.5255 28.3919 31.3246C28.1966 31.1237 27.9308 31.0068 27.6508 30.9987H22.1032V29.3916C22.1042 28.6321 22.4063 27.9039 22.9434 27.3669C23.4804 26.8298 24.2086 26.5277 24.9681 26.5267H49.3885C49.7271 26.5267 50.0623 26.5934 50.375 26.723C50.6878 26.8525 50.9719 27.0424 51.2113 27.2817C51.4507 27.5211 51.6406 27.8053 51.7701 28.118C51.8996 28.4308 51.9663 28.766 51.9663 29.1045V51.9747H37.1059C36.6802 50.9917 35.9765 50.1545 35.0815 49.5659C34.1864 48.9774 33.1389 48.6631 32.0677 48.6618L32.0668 48.6582ZM61.8748 57.4902C61.2143 57.4902 60.5686 57.2944 60.0194 56.9274C59.4702 56.5605 59.0422 56.0389 58.7894 55.4287C58.5367 54.8184 58.4705 54.147 58.5994 53.4992C58.7282 52.8513 59.0463 52.2563 59.5133 51.7893C59.9804 51.3222 60.5754 51.0042 61.2232 50.8753C61.8711 50.7464 62.5425 50.8126 63.1528 51.0653C63.763 51.3181 64.2846 51.7461 64.6515 52.2953C65.0185 52.8445 65.2143 53.4902 65.2143 54.1507C65.2141 55.0367 64.8621 55.8864 64.2358 56.5131C63.6094 57.1398 62.7599 57.4922 61.8739 57.4929L61.8748 57.4902ZM67.8036 51.9702H66.9148C66.49 50.9866 65.7865 50.1489 64.8913 49.5603C63.996 48.9717 62.948 48.6581 61.8765 48.6581C60.8051 48.6581 59.7571 48.9717 58.8618 49.5603C57.9665 50.1489 57.2631 50.9866 56.8383 51.9702H54.121V37.892C54.1217 37.2201 54.3889 36.576 54.864 36.1009C55.3391 35.6258 55.9833 35.3585 56.6552 35.3578H58.593V41.5347C58.5939 42.5315 58.9904 43.4873 59.6954 44.1921C60.4003 44.8969 61.3562 45.2931 62.353 45.2938H69.6321V50.1462C69.6314 50.6305 69.4387 51.0947 69.0963 51.4371C68.7539 51.7795 68.2897 51.9722 67.8054 51.9729L67.8036 51.9702Z" fill="#4E4B66" stroke="#4E4B66"/>
<path id="&#208;&#154;&#208;&#190;&#208;&#189;&#209;&#130;&#209;&#131;&#209;&#128; 1819" d="M42.1704 31.8544C42.0136 31.7221 41.8224 31.6373 41.6191 31.6101C41.4157 31.5829 41.2089 31.6143 41.0228 31.7007C40.8368 31.7871 40.6793 31.9249 40.5689 32.0977C40.4585 32.2706 40.3999 32.4715 40.3998 32.6766V34.4704H31.95C31.6645 34.4704 31.3907 34.5838 31.1888 34.7856C30.987 34.9875 30.8735 35.2613 30.8735 35.5468V41.2881C30.8735 41.5736 30.987 41.8474 31.1888 42.0493C31.3907 42.2512 31.6645 42.3646 31.95 42.3646H40.3998V44.1584C40.3997 44.3636 40.4582 44.5645 40.5685 44.7375C40.6789 44.9105 40.8364 45.0484 41.0224 45.1349C41.2085 45.2214 41.4154 45.2529 41.6188 45.2257C41.8222 45.1986 42.0136 45.1138 42.1704 44.9815L48.9748 39.2401C49.0946 39.1392 49.1908 39.0133 49.2568 38.8713C49.3228 38.7292 49.357 38.5745 49.357 38.4179C49.357 38.2613 49.3228 38.1066 49.2568 37.9646C49.1908 37.8225 49.0946 37.6967 48.9748 37.5957L42.1704 31.8544ZM42.5527 41.8419V41.2881C42.5527 41.1468 42.5248 41.0068 42.4707 40.8762C42.4166 40.7456 42.3373 40.6269 42.2374 40.527C42.1374 40.427 42.0187 40.3477 41.8881 40.2936C41.7575 40.2395 41.6176 40.2117 41.4762 40.2117H33.0264V36.6232H41.4762C41.6176 36.6232 41.7575 36.5954 41.8881 36.5413C42.0187 36.4872 42.1374 36.4079 42.2374 36.308C42.3373 36.208 42.4166 36.0893 42.4707 35.9587C42.5248 35.8281 42.5527 35.6882 42.5527 35.5468V34.993L46.6113 38.417L42.5527 41.8419Z" fill="#4E4B66" stroke="#4E4B66" stroke-width="1.25"/>
</g>
</svg>
